<?xml version="1.0" encoding="utf-8"?>
<!-- Generator: Adobe Illustrator 22.0.1, SVG Export Plug-In . SVG Version: 6.00 Build 0)  -->
<svg version="1.1" id="Layer_1" xmlns="http://www.w3.org/2000/svg" xmlns:xlink="http://www.w3.org/1999/xlink" x="0px" y="0px"
	 viewBox="0 0 444.2 441.8" style="enable-background:new 0 0 444.2 441.8;" xml:space="preserve">
<style type="text/css">
	.st0{fill:#F7F708;}
	.st1{enable-background:new    ;}
</style>
<ellipse class="st0" cx="222.2" cy="220.8" rx="222" ry="221"/>
<ellipse cx="286.5" cy="157.1" rx="31.9" ry="47.7"/>
<ellipse cx="158.8" cy="157.1" rx="31.9" ry="47.7"/>
<path d="M365.7,256.9c-18.5,62.9-77.3,106.8-143.1,106.8s-124.6-43.9-143-106.8c-2.5-8.4,2.4-17.2,10.9-19.7
	c8.6-2.5,17.3,2.4,19.8,10.8c14.5,49.4,60.7,83.9,112.4,83.9S320.6,297.4,335,248c2.5-8.4,11.3-13.3,19.8-10.8
	C363.3,239.7,368.2,248.5,365.7,256.9z"/>
<text transform="matrix(1 0 0 1 -33.8333 491.1667)" style="font-family:'HelveticaNeue-Bold'; font-size:5px;">Created by Icon Solid</text>
<text transform="matrix(1 0 0 1 -33.8333 496.1667)" style="font-family:'HelveticaNeue-Bold'; font-size:5px;">from the Noun Project</text>
</svg>
